<mxfile host="app.diagrams.net" modified="2024-04-26T17:44:10.980Z" agent="Mozilla/5.0 (Macintosh; Intel Mac OS X 10_15_7) AppleWebKit/537.36 (KHTML, like Gecko) Chrome/124.0.0.0 Safari/537.36" etag="ROHha3fN3ZNR8DP1v4W1" version="24.3.0" type="device">
  <diagram name="Page-1" id="UcHZJhFEcX3Kwn3Ltrct">
    <mxGraphModel dx="1194" dy="565" grid="1" gridSize="10" guides="1" tooltips="1" connect="1" arrows="1" fold="1" page="1" pageScale="1" pageWidth="1169" pageHeight="827" math="1" shadow="0">
      <root>
        <mxCell id="0" />
        <mxCell id="1" parent="0" />
        <mxCell id="M3M_JHbQ_6NefmgoNEq8-29" value="" style="ellipse;whiteSpace=wrap;html=1;aspect=fixed;" parent="1" vertex="1">
          <mxGeometry x="280" y="120" width="40" height="40" as="geometry" />
        </mxCell>
        <mxCell id="M3M_JHbQ_6NefmgoNEq8-30" value="" style="ellipse;whiteSpace=wrap;html=1;aspect=fixed;" parent="1" vertex="1">
          <mxGeometry x="360" y="80" width="40" height="40" as="geometry" />
        </mxCell>
        <mxCell id="M3M_JHbQ_6NefmgoNEq8-31" value="" style="ellipse;whiteSpace=wrap;html=1;aspect=fixed;" parent="1" vertex="1">
          <mxGeometry x="440" y="80" width="40" height="40" as="geometry" />
        </mxCell>
        <mxCell id="M3M_JHbQ_6NefmgoNEq8-32" value="" style="ellipse;whiteSpace=wrap;html=1;aspect=fixed;" parent="1" vertex="1">
          <mxGeometry x="520" y="120" width="40" height="40" as="geometry" />
        </mxCell>
        <mxCell id="M3M_JHbQ_6NefmgoNEq8-33" value="" style="ellipse;whiteSpace=wrap;html=1;aspect=fixed;" parent="1" vertex="1">
          <mxGeometry x="520" y="200" width="40" height="40" as="geometry" />
        </mxCell>
        <mxCell id="M3M_JHbQ_6NefmgoNEq8-34" value="" style="ellipse;whiteSpace=wrap;html=1;aspect=fixed;" parent="1" vertex="1">
          <mxGeometry x="280" y="200" width="40" height="40" as="geometry" />
        </mxCell>
        <mxCell id="M3M_JHbQ_6NefmgoNEq8-35" value="" style="ellipse;whiteSpace=wrap;html=1;aspect=fixed;" parent="1" vertex="1">
          <mxGeometry x="360" y="240" width="40" height="40" as="geometry" />
        </mxCell>
        <mxCell id="M3M_JHbQ_6NefmgoNEq8-36" value="" style="ellipse;whiteSpace=wrap;html=1;aspect=fixed;" parent="1" vertex="1">
          <mxGeometry x="440" y="240" width="40" height="40" as="geometry" />
        </mxCell>
        <mxCell id="M3M_JHbQ_6NefmgoNEq8-37" value="" style="endArrow=none;html=1;rounded=0;" parent="1" source="M3M_JHbQ_6NefmgoNEq8-36" target="M3M_JHbQ_6NefmgoNEq8-30" edge="1">
          <mxGeometry width="50" height="50" relative="1" as="geometry">
            <mxPoint x="452" y="240" as="sourcePoint" />
            <mxPoint x="390" y="120" as="targetPoint" />
          </mxGeometry>
        </mxCell>
        <mxCell id="M3M_JHbQ_6NefmgoNEq8-39" value="" style="endArrow=none;html=1;rounded=0;entryX=0.769;entryY=0.93;entryDx=0;entryDy=0;entryPerimeter=0;" parent="1" source="M3M_JHbQ_6NefmgoNEq8-35" target="M3M_JHbQ_6NefmgoNEq8-29" edge="1">
          <mxGeometry width="50" height="50" relative="1" as="geometry">
            <mxPoint x="372" y="280" as="sourcePoint" />
            <mxPoint x="310" y="156" as="targetPoint" />
          </mxGeometry>
        </mxCell>
        <mxCell id="M3M_JHbQ_6NefmgoNEq8-40" value="" style="endArrow=none;html=1;rounded=0;exitX=0;exitY=0;exitDx=0;exitDy=0;entryX=0.716;entryY=0.933;entryDx=0;entryDy=0;entryPerimeter=0;" parent="1" source="M3M_JHbQ_6NefmgoNEq8-33" target="M3M_JHbQ_6NefmgoNEq8-31" edge="1">
          <mxGeometry width="50" height="50" relative="1" as="geometry">
            <mxPoint x="532" y="240" as="sourcePoint" />
            <mxPoint x="470" y="120" as="targetPoint" />
          </mxGeometry>
        </mxCell>
        <mxCell id="M3M_JHbQ_6NefmgoNEq8-41" value="" style="endArrow=none;html=1;rounded=0;entryX=0.25;entryY=1;entryDx=0;entryDy=0;entryPerimeter=0;" parent="1" source="M3M_JHbQ_6NefmgoNEq8-34" target="M3M_JHbQ_6NefmgoNEq8-30" edge="1">
          <mxGeometry width="50" height="50" relative="1" as="geometry">
            <mxPoint x="418" y="206" as="sourcePoint" />
            <mxPoint x="360" y="120" as="targetPoint" />
          </mxGeometry>
        </mxCell>
        <mxCell id="M3M_JHbQ_6NefmgoNEq8-42" value="" style="endArrow=none;html=1;rounded=0;entryX=0.769;entryY=0.93;entryDx=0;entryDy=0;entryPerimeter=0;exitX=0.687;exitY=-0.026;exitDx=0;exitDy=0;exitPerimeter=0;" parent="1" source="M3M_JHbQ_6NefmgoNEq8-35" edge="1">
          <mxGeometry width="50" height="50" relative="1" as="geometry">
            <mxPoint x="508" y="206" as="sourcePoint" />
            <mxPoint x="450" y="120" as="targetPoint" />
          </mxGeometry>
        </mxCell>
        <mxCell id="M3M_JHbQ_6NefmgoNEq8-43" value="" style="endArrow=none;html=1;rounded=0;entryX=0.716;entryY=0.933;entryDx=0;entryDy=0;entryPerimeter=0;" parent="1" source="M3M_JHbQ_6NefmgoNEq8-32" edge="1">
          <mxGeometry width="50" height="50" relative="1" as="geometry">
            <mxPoint x="537" y="199" as="sourcePoint" />
            <mxPoint x="480" y="110" as="targetPoint" />
          </mxGeometry>
        </mxCell>
        <mxCell id="M3M_JHbQ_6NefmgoNEq8-44" value="" style="endArrow=none;html=1;rounded=0;exitX=0.5;exitY=0;exitDx=0;exitDy=0;" parent="1" source="M3M_JHbQ_6NefmgoNEq8-34" edge="1">
          <mxGeometry width="50" height="50" relative="1" as="geometry">
            <mxPoint x="250" y="210" as="sourcePoint" />
            <mxPoint x="300" y="160" as="targetPoint" />
          </mxGeometry>
        </mxCell>
      </root>
    </mxGraphModel>
  </diagram>
</mxfile>
